<?xml version="1.0" encoding="UTF-8"?>
<!DOCTYPE svg PUBLIC "-//W3C//DTD SVG 1.1//EN" "http://www.w3.org/Graphics/SVG/1.1/DTD/svg11.dtd">
<!-- Creator: CorelDRAW 2019 (64-Bit) -->
<svg xmlns="http://www.w3.org/2000/svg" xml:space="preserve" width="11.6929in" height="8.26772in" version="1.1" style="shape-rendering:geometricPrecision; text-rendering:geometricPrecision; image-rendering:optimizeQuality; fill-rule:evenodd; clip-rule:evenodd"
viewBox="0 0 11692.91 8267.72"
 xmlns:xlink="http://www.w3.org/1999/xlink">
 <defs>
  <style type="text/css">
   <![CDATA[
    .str0 {stroke:#373435;stroke-width:6.94;stroke-miterlimit:2.61313}
    .fil1 {fill:#9BFAF6}
    .fil2 {fill:#D4BEFF}
    .fil0 {fill:#FFEC73}
   ]]>
  </style>
 </defs>
 <g id="Layer_x0020_1">
  <metadata id="CorelCorpID_0Corel-Layer"/>
  <rect class="fil0 str0" x="5044.93" y="3423.21" width="256.94" height="435.76"/>
  <rect class="fil0 str0" x="5044.93" y="3858.97" width="256.94" height="463.98"/>
  <rect class="fil0 str0" x="4830.08" y="3423.21" width="214.84" height="435.76"/>
  <rect class="fil0 str0" x="4830.08" y="3858.97" width="214.84" height="463.98"/>
  <rect class="fil0 str0" x="4613.08" y="3423.21" width="217" height="435.76"/>
  <rect class="fil0 str0" x="4398.67" y="3423.21" width="214.41" height="435.76"/>
  <rect class="fil0 str0" x="4183.39" y="3423.21" width="215.28" height="435.76"/>
  <rect class="fil0 str0" x="3968.13" y="3423.21" width="215.26" height="435.76"/>
  <polygon class="fil0 str0" points="3968.13,3858.97 3646.08,3855.94 3607.3,3842.43 3753.26,3423.21 3968.13,3423.21 "/>
  <rect class="fil1 str0" x="4633.07" y="3858.97" width="197.02" height="463.98"/>
  <rect class="fil1 str0" x="4437.76" y="3858.97" width="195.31" height="463.98"/>
  <rect class="fil1 str0" x="4244.18" y="3858.97" width="193.58" height="463.98"/>
  <rect class="fil1 str0" x="4044.52" y="3858.97" width="199.65" height="463.98"/>
  <polygon class="fil2 str0" points="3646.08,3855.94 3676.04,3865.48 3811.45,4068.61 3853.99,4322.95 4044.52,4322.95 4044.52,3858.97 "/>
  <rect class="fil2 str0" x="5064.96" y="4561.67" width="236.91" height="429.68"/>
  <rect class="fil0 str0" x="4849.68" y="4561.67" width="215.28" height="429.68"/>
  <rect class="fil0 str0" x="4634.41" y="4561.67" width="215.28" height="429.68"/>
  <rect class="fil0 str0" x="4418.26" y="4561.67" width="216.15" height="429.68"/>
  <rect class="fil0 str0" x="4204.72" y="4561.67" width="213.54" height="429.68"/>
  <polygon class="fil0 str0" points="4204.72,4561.67 3903.5,4561.67 4027.64,4993.95 4204.72,4991.35 "/>
  <polygon class="fil0 str0" points="4767.87,5358.37 4880.67,5540.57 4508.61,5770.9 4395.82,5588.69 "/>
  <polygon class="fil0 str0" points="4281.01,5403.23 4653.07,5172.91 4767.87,5358.37 4395.82,5588.69 "/>
  <polygon class="fil0 str0" points="4027.64,4993.95 4540.67,4991.35 4653.07,5172.91 4281.01,5403.23 "/>
  <polygon class="fil0 str0" points="5525.04,5060.77 6018.14,5060.77 6023.35,5256.93 5862.72,5276.05 5525.04,5276.05 "/>
  <polygon class="fil0 str0" points="5525.04,4845.49 6025.08,4845.49 6018.14,5060.77 5525.04,5060.77 "/>
  <polygon class="fil0 str0" points="6025.08,4845.49 6025.08,4630.21 5525.04,4630.21 5525.04,4845.49 "/>
  <polygon class="fil0 str0" points="6025.08,4630.21 6025.08,4414.93 5525.04,4414.93 5525.04,4630.21 "/>
  <polygon class="fil0 str0" points="6025.08,4414.93 6019.01,4199.65 5525.04,4199.65 5525.04,4414.93 "/>
  <polygon class="fil0 str0" points="6019.01,4199.65 6026.85,3984.37 5525.04,3984.37 5525.04,4199.65 "/>
  <polygon class="fil0 str0" points="6026.85,3984.37 6033.79,3769.09 5525.04,3769.09 5525.04,3984.37 "/>
  <polygon class="fil2 str0" points="6033.79,3769.09 6040.75,3572.91 5525.04,3572.91 5525.04,3769.09 "/>
  <polygon class="fil2 str0" points="6040.75,3572.91 6046.82,3338.54 5525.04,3338.54 5525.04,3572.91 "/>
  <polygon class="fil2 str0" points="3450.74,3586.34 2933.73,3406.33 2828.98,3635.44 3098.94,3720.51 3379.44,3791.12 "/>
  <polygon class="fil0 str0" points="2933.73,3406.33 3024.93,3212.51 3516.73,3383.75 3450.74,3586.34 "/>
  <polygon class="fil0 str0" points="3024.93,3212.51 3118.76,3011.85 3593.24,3177.06 3520.78,3385.16 "/>
  <polygon class="fil0 str0" points="3933.06,2361.98 3990.91,2195.81 3539.15,2038.52 3472.25,2026.52 3420.9,2183.66 "/>
  <polygon class="fil0 str0" points="3420.9,2183.66 3361.78,2353.47 3873.93,2531.8 3933.06,2361.98 "/>
  <polygon class="fil0 str0" points="3361.78,2353.47 3305.16,2520.46 3816.79,2695.92 3874.78,2529.35 "/>
  <polygon class="fil0 str0" points="3305.16,2520.46 3247.87,2685 3758.66,2862.85 3816.79,2695.92 "/>
  <polygon class="fil0 str0" points="3247.87,2685 3190.1,2850.93 3700.89,3028.78 3758.66,2862.85 "/>
  <polygon class="fil0 str0" points="3190.1,2850.93 3180.38,2881.81 3118.76,3011.85 3646.09,3194.31 3700.89,3028.78 "/>
 </g>
</svg>
