<?xml version="1.0" encoding="UTF-8"?>
<!DOCTYPE svg PUBLIC "-//W3C//DTD SVG 1.1//EN" "http://www.w3.org/Graphics/SVG/1.1/DTD/svg11.dtd">
<!-- Creator: CorelDRAW 2019 (64-Bit) -->
<svg xmlns="http://www.w3.org/2000/svg" xml:space="preserve" width="11.6929in" height="8.26772in" version="1.1" style="shape-rendering:geometricPrecision; text-rendering:geometricPrecision; image-rendering:optimizeQuality; fill-rule:evenodd; clip-rule:evenodd"
viewBox="0 0 11692.91 8267.72"
 xmlns:xlink="http://www.w3.org/1999/xlink">
 <defs>
  <style type="text/css">
   <![CDATA[
    .str0 {stroke:#373435;stroke-width:6.94;stroke-miterlimit:2.61313}
    .fil0 {fill:none}
   ]]>
  </style>
 </defs>
 <g id="Layer_x0020_1">
  <metadata id="CorelCorpID_0Corel-Layer"/>
  <rect class="fil0 str0" x="5044.93" y="3423.21" width="256.94" height="435.76"/>
  <rect class="fil0 str0" x="5044.93" y="3858.97" width="256.94" height="463.98"/>
  <rect class="fil0 str0" x="4830.08" y="3423.21" width="214.84" height="435.76"/>
  <rect class="fil0 str0" x="4830.08" y="3858.97" width="214.84" height="463.98"/>
  <rect class="fil0 str0" x="4613.08" y="3423.21" width="217" height="435.76"/>
  <rect class="fil0 str0" x="4398.67" y="3423.21" width="214.41" height="435.76"/>
  <rect class="fil0 str0" x="4183.39" y="3423.21" width="215.28" height="435.76"/>
  <rect class="fil0 str0" x="3968.13" y="3423.21" width="215.26" height="435.76"/>
  <polygon class="fil0 str0" points="3968.13,3858.97 3646.08,3855.94 3607.3,3842.43 3753.26,3423.21 3968.13,3423.21 "/>
  <rect class="fil0 str0" x="4633.07" y="3858.97" width="197.02" height="463.98"/>
  <rect class="fil0 str0" x="4437.76" y="3858.97" width="195.31" height="463.98"/>
  <rect class="fil0 str0" x="4244.18" y="3858.97" width="193.58" height="463.98"/>
  <rect class="fil0 str0" x="4044.52" y="3858.97" width="199.65" height="463.98"/>
  <polygon class="fil0 str0" points="3646.08,3855.94 3676.04,3865.48 3811.45,4068.61 3853.99,4322.95 4044.52,4322.95 4044.52,3858.97 "/>
 </g>
</svg>
